<svg id="Layer_1" data-name="Layer 1" xmlns="http://www.w3.org/2000/svg" viewBox="0 0 278.85 759.23"><defs><style>.cls-1{fill:none;}.cls-1,.cls-2{stroke:#000;stroke-miterlimit:10;}.cls-2{fill:#e6e6e6;}</style></defs><line class="cls-1" x1="0.7" y1="239.23" x2="0.77" y2="262.95"/><g id="Layer_2" data-name="Layer 2"><path id="outline" class="cls-1" d="M138,339.56c0,17-.19,343,1.32,381.31.4,10.31,1.55,20.33,1.55,20.33,2.05,19.78,3.45,32.34,9.3,45.74a100.31,100.31,0,0,0,13.95,22c6.63,7.78,25.82,25.73,113.16,25.41,78.48-.29,97.6-17.19,104.45-24.65,9.64-10.51,17.37-24.29,17.37-24.29a122.12,122.12,0,0,0,13.55-34.35,114.14,114.14,0,0,0,2.5-18.55c.27-5.26-1-18.42-1.05-19.22" transform="translate(-136.79 -75.64)"/><path id="outline-2" data-name="outline" class="cls-1" d="M101.88,330.94" transform="translate(-136.79 -75.64)"/><path id="outline-3" data-name="outline" class="cls-1" d="M413.17,315.94c-.52-7.85-.9-14.76-1.18-20.49-.74-15.16-1.06-27.51-1.22-37-.36-21.49-.21-52.33-.21-53,.22-55.51-21.44-86.35-21.44-86.35-15.51-21.9-36.09-31.69-42-34.42-18.39-8.48-37.08-8.62-73.71-8.55-31.75.06-48,.22-65.84,6.71-11.07,4-35.72,13.36-49.75,37.23a83.81,83.81,0,0,0-3.95,7.8c-9,19.3-12.12,37.6-14.6,86.46-1.09,21.36-1.47,37.13-1.55,40.66-.59,24.88-.46,45.49-.22,59.84" transform="translate(-136.79 -75.64)"/></g><g id="Layer_3" data-name="Layer 3"><path id="sunroof" class="cls-1" d="M170.71,392.89c32-2.77,66.59-4.47,103.34-4.52,29.55,0,53.85,1,68.51,1.84,14.87.82,27.73,1.8,37.93,2.68l-10,285.05L179,677.5Q174.84,535.19,170.71,392.89Z" transform="translate(-136.79 -75.64)"/></g><g id="Layer_4" data-name="Layer 4"><path id="hood" class="cls-1" d="M161.49,214.88a366.79,366.79,0,0,1,227.36,2.26q.13-49,.28-98a110.13,110.13,0,0,0-22-22.5c-26.24-19.93-53.23-20.39-93.74-20.47-37.34-.07-63.11.25-89.71,18.41a115.83,115.83,0,0,0-22.11,19.79Q161.51,164.62,161.49,214.88Z" transform="translate(-136.79 -75.64)"/><path id="top-frame" class="cls-1" d="M159.42,729.38c2.54,13.59,8.9,36.53,26.87,52,5.9,5.06,19.24,14.63,93,12.36,62.95-1.94,75.09-9.57,81.63-14.62,20.58-15.89,29.26-39.82,33.07-54.21q-1.54-238.87-3.1-477.74a322.88,322.88,0,0,0-231.48-2.26Q159.41,487.11,159.42,729.38Z" transform="translate(-136.79 -75.64)"/><path id="driv-back-door" class="cls-1" d="M159.42,676.86l-20.36,36.45L138,501.53l21.41.28Z" transform="translate(-136.79 -75.64)"/><path id="pass-rear-door" class="cls-1" d="M394,676.86l20,36.45q.51-105.88,1-211.78l-22.52.84Q393.28,589.61,394,676.86Z" transform="translate(-136.79 -75.64)"/><path id="driv-front-door" class="cls-2" d="M137.56,338.59,138,501.51l21.41.28V244.86L137.3,287.21c.06,9.22.2,42.16.26,51.38" transform="translate(-136.79 -75.64)"/><path id="driv-front-door-2" data-name="driv-front-door" class="cls-1" d="M106.37,324.67" transform="translate(-136.79 -75.64)"/><line class="cls-1" x1="276.23" y1="265.57" x2="276.29" y2="241.85"/><path id="pass-front-door" class="cls-2" d="M413.08,317.49c.69,53.43,1.32,130.58,2,184l-22.52.84q-.84-127.39-1.66-254.85l20.76,41.42,1.41,28.58" transform="translate(-136.79 -75.64)"/><path id="pass-front-door-2" data-name="pass-front-door" class="cls-1" d="M444.55,327.29" transform="translate(-136.79 -75.64)"/></g><g id="Layer_6" data-name="Layer 6"><path id="windshield" class="cls-1" d="M161.49,244.86l9.3,149.08a974.54,974.54,0,0,1,209.78,0q5.16-73.41,10.33-146.82a333.62,333.62,0,0,0-229.41-2.26Z" transform="translate(-136.79 -75.64)"/></g></svg>