<?xml version="1.0" encoding="utf-8"?>
<!-- Generator: Adobe Illustrator 25.2.0, SVG Export Plug-In . SVG Version: 6.00 Build 0)  -->
<svg version="1.1" id="Layer_1" xmlns="http://www.w3.org/2000/svg" xmlns:xlink="http://www.w3.org/1999/xlink" x="0px"
	y="0px" viewBox="0 0 550.95 895.82" style="enable-background:new 0 0 550.95 895.82;" xml:space="preserve">
	<style type="text/css">
		.st0 {
			fill: none;
			.st0{stroke:current;}
			stroke-miterlimit: 10;
		}
	</style>
	<g id="Layer_2_1_">
		<path id="outline" class="st0" d="M389.12,119.12c-15.51-21.9-36.09-31.69-42.01-34.42c-18.39-8.48-37.08-8.62-73.71-8.55
		c-31.75,0.06-47.98,0.22-65.84,6.71c-11.07,4.02-35.72,13.36-49.75,37.23c-1.64,2.79-2.57,4.85-3.95,7.8
		c-8.99,19.3-12.12,37.6-14.6,86.46c-1.09,21.36-1.47,37.13-1.55,40.66c-0.59,24.88-0.46,45.49-0.22,59.84
		c-3.29-0.55-15.8-2.2-26.83,6.57c-5.8,4.61-8,7.48-8.78,9.52c-1.78,4.7-2.07,11.9,1.29,14.78c2.93,2.52,6.94,0.28,18.01-2.63
		c6.99-1.84,12.82-2.9,16.77-3.53c-0.01,17.01-0.19,342.97,1.32,381.31c0.4,10.31,1.55,20.33,1.55,20.33
		c2.05,19.78,3.45,32.34,9.3,45.74c0,0,5.06,11.58,13.95,22.02c6.63,7.78,25.82,25.73,113.16,25.41
		c78.48-0.29,97.6-17.19,104.45-24.65c9.64-10.51,17.37-24.29,17.37-24.29c3.35-5.97,9.93-17.9,13.55-34.35
		c1.57-7.14,2.24-13.52,2.5-18.55c0.27-5.26,0.12-9.18,0.1-9.98c-0.29-8.73-0.57-115-0.81-381.78c3.82,1,10.09,2.71,17.86,5.13
		c9.87,3.07,13.14,4.48,15.54,2.44c3.47-2.96,2.73-11.18,0.28-16.53c-3.11-6.77-9.19-9.46-14.89-11.98
		c-4.02-1.78-10.89-4.12-20.01-3.89c-0.52-7.85-0.9-14.76-1.18-20.49c-0.74-15.16-1.06-27.51-1.22-36.97
		c-0.36-21.49-0.21-52.33-0.21-53.01C410.78,149.96,389.12,119.12,389.12,119.12z" />
	</g>
	<g id="Layer_3">
		<path id="sunroof" class="st0" d="M170.71,392.89c32.05-2.77,66.59-4.47,103.34-4.52c29.55-0.04,53.85,1.03,68.51,1.84
		c14.87,0.82,27.73,1.8,37.93,2.68c-3.32,95.02-6.64,190.04-9.96,285.05c-63.85-0.15-127.7-0.3-191.55-0.44
		C176.22,582.63,173.47,487.76,170.71,392.89z" />
	</g>
	<g id="Layer_4">
		<path id="hood" class="st0"
			d="M161.49,214.88c26.57-8.33,63.34-16.61,107.48-16.94c50.22-0.37,91.5,9.69,119.88,19.2
		c0.09-32.67,0.18-65.34,0.28-98.02c-4.49-6.11-11.65-14.65-21.98-22.5c-26.24-19.93-53.23-20.39-93.74-20.47
		c-37.34-0.07-63.11,0.25-89.71,18.41c-10.12,6.91-17.43,14.39-22.11,19.79C161.54,147.86,161.51,181.37,161.49,214.88z" />
		<path id="top-frame" class="st0"
			d="M159.42,729.38c2.54,13.59,8.9,36.53,26.87,51.95c5.9,5.06,19.24,14.63,93.02,12.36
		c62.95-1.94,75.09-9.57,81.63-14.62c20.58-15.89,29.26-39.82,33.07-54.21c-1.03-159.25-2.07-318.49-3.1-477.74
		c-25.67-10.08-65.75-22.13-115.74-22.59c-49.82-0.46-89.95,10.77-115.74,20.33C159.42,406.36,159.42,567.87,159.42,729.38z" />
		<path id="driv-back-door" class="st0" d="M159.42,676.86c-6.79,12.15-13.57,24.3-20.36,36.45c-0.35-70.59-0.7-141.19-1.05-211.78
		c7.14,0.09,14.27,0.19,21.41,0.28C159.42,560.15,159.42,618.51,159.42,676.86z" />
		<path id="pass-rear-door" class="st0" d="M394.01,676.86c6.68,12.15,13.36,24.3,20.04,36.45c0.34-70.59,0.69-141.19,1.03-211.78
		c-7.51,0.28-15.01,0.56-22.52,0.84C393.04,560.53,393.52,618.69,394.01,676.86z" />
		<path id="driv-front-door" class="st0" d="M159.42,244.86c-7.37,14.12-14.75,28.23-22.12,42.35c0.06,9.22,0.13,18.44,0.19,27.66
		c-4.95-0.65-12.13-0.74-19.86,2.36c-2.93,1.17-7.26,2.97-11.26,7.44c-2.03,2.27-5.22,5.84-5.66,11.35
		c-0.11,1.37-0.57,7.05,2.46,9.72c2.91,2.56,7.08,0.55,18.01-2.63c7.01-2.04,12.73-3.57,16.38-4.52
		c0.15,54.31,0.3,108.61,0.45,162.92c7.14,0.09,14.27,0.19,21.41,0.28C159.42,416.15,159.42,330.51,159.42,244.86z" />
		<path id="pass-front-door" class="st0" d="M390.91,247.49c6.92,13.81,13.84,27.62,20.76,41.42c0.47,9.53,0.94,19.06,1.41,28.58
		c5-0.65,12.27-0.74,20.09,2.36c2.96,1.17,7.34,2.97,11.38,7.44c2.05,2.27,5.27,5.84,5.73,11.35c0.11,1.37,0.58,7.05-2.49,9.72
		c-2.94,2.56-7.16,0.55-18.21-2.63c-7.09-2.04-12.87-3.57-16.56-4.52c0.69,53.43,1.38,106.86,2.07,160.29
		c-7.51,0.28-15.01,0.56-22.52,0.84C392.01,417.41,391.46,332.45,390.91,247.49z" />
	</g>
	<g id="Layer_6">
		<path id="windshield" class="st0" d="M161.49,244.86c3.1,49.69,6.2,99.39,9.3,149.08c30.61-3.31,64.15-5.47,100.24-5.65
		c39.69-0.19,76.37,2.06,109.54,5.65c3.44-48.94,6.89-97.88,10.33-146.82c-27.37-10.25-69.64-22.11-121.94-21.46
		C223.96,226.22,187.04,235.84,161.49,244.86z" />
	</g>
</svg>
