<svg width="227" height="213" viewBox="0 0 227 213" fill="none" xmlns="http://www.w3.org/2000/svg">
<g clip-path="url(#clip0_207_47)">
<path d="M72.2556 201.97L86.011 184.994L83.3604 24.523L60.9123 33.7251L65.0828 199.53C65.1772 203.282 69.8928 204.886 72.2556 201.97Z" fill="#010103"/>
<path d="M87.314 195.553L88.2575 195.553C91.1768 195.553 93.564 193.226 93.6387 190.307L95.7947 106.175L90.679 19.5463L75.8963 21.3705L83.5393 195.553L87.314 195.553Z" fill="url(#paint0_linear_207_47)"/>
<path d="M88.9078 5.0503L84.8947 5.36137C83.5386 5.46648 82.4741 6.56678 82.4138 7.92557L81.0166 39.4302C80.966 40.5695 81.6391 41.617 82.6963 42.0446L87.4615 43.9718C88.9055 44.5558 90.4626 43.7955 90.9822 42.4512L92.3899 55.9971L119.288 66.9158C120.732 67.502 122.401 66.7369 122.573 65.188C124.118 51.2911 103.483 39.3438 91.297 34.45L91.8068 7.78522C91.8372 6.19658 90.4919 4.92751 88.9078 5.0503Z" fill="url(#paint1_linear_207_47)"/>
<circle r="4.03727" transform="matrix(-0.430035 -0.902812 -0.902812 0.430035 86.5255 40.9029)" fill="#BBC6BD"/>
<path d="M91.4283 177.822L91.4283 159.552" stroke="white" stroke-width="1.66084" stroke-linecap="round"/>
</g>
<defs>
<linearGradient id="paint0_linear_207_47" x1="88.2904" y1="43.0435" x2="95.019" y2="194.864" gradientUnits="userSpaceOnUse">
<stop stop-color="#404B4D"/>
<stop offset="1" stop-color="#767B7D"/>
</linearGradient>
<linearGradient id="paint1_linear_207_47" x1="95.7511" y1="14.8944" x2="98.4486" y2="78.4518" gradientUnits="userSpaceOnUse">
<stop stop-color="#414B49"/>
<stop offset="0.357292" stop-color="#69665F"/>
<stop offset="1" stop-color="#55544F"/>
</linearGradient>
<clipPath id="clip0_207_47">
<rect width="225.874" height="212.587" fill="white" transform="matrix(-1 0 0 1 226.787 0.111877)"/>
</clipPath>
</defs>
</svg>
