<svg width="263" height="455" viewBox="0 0 263 455" fill="none" xmlns="http://www.w3.org/2000/svg">
<path d="M0.793663 39.5392V183.202C2.4545 265.552 10.9247 435.068 31.5191 454.334H41.8994C34.1488 409.629 19.4781 315.737 22.7998 297.8C26.1215 279.863 27.7823 105.142 28.1975 20.0243L14.0803 0.924683H1.15105C0.917873 13.0604 0.793663 25.9199 0.793663 39.5392Z" fill="#434343"/>
<path d="M262.791 41.6062V183.69C261.147 265.135 252.762 432.789 232.376 451.843H222.101C229.773 407.63 244.295 314.769 241.007 297.029C237.719 279.289 236.075 106.488 235.664 22.3058L249.639 3.41604H262.437C262.668 15.4184 262.791 28.1366 262.791 41.6062Z" fill="#434343"/>
</svg>
