<?xml version="1.0" encoding="utf-8"?>
<!-- Generator: Adobe Illustrator 25.2.0, SVG Export Plug-In . SVG Version: 6.00 Build 0)  -->
<svg version="1.1" id="Layer_2" xmlns="http://www.w3.org/2000/svg" xmlns:xlink="http://www.w3.org/1999/xlink" x="0px" y="0px"
	 viewBox="0 0 500 500" style="enable-background:new 0 0 500 500;" xml:space="preserve">
<style type="text/css">
	.st0{fill:current;}
</style>
<polyline class="st0" points="52.69,192.74 89.47,228.32 115.27,201.64 112.27,296.74 13.11,307.26 42.08,277.32 5.82,241.19 
	50.05,195.46 "/>
<circle class="st0" cx="443.61" cy="115.95" r="55.23"/>
<path class="st0" d="M218.14,246.67c23.75-5.7,55.08,0.92,69.68,15.91c1.95,2,6.29,6.91,13.63,9.09c7.86,2.33,15.39,0.41,20.45-1.51
	c18.68-28.28,37.37-56.56,56.05-84.83c2.73-3.76,7.32-9,14.39-12.88c17.47-9.58,40.25-5.47,54.54,5.3
	c30.17,22.77,17.73,71.79,16.66,75.74c-0.95,3.55-3.05,10.41-11.36,25c-18.21,31.97-32.99,57.9-62.87,74.23
	c-34.86,19.05-70.2,14.04-82.56,12.12c-40.3-6.27-66.25-28.22-75.74-37.11c-28.78,36.1-57.57,72.21-86.35,108.31
	c-15.79,9.05-35.29,7.44-48.48-3.79c-17.55-14.95-13.82-38.35-13.63-39.39c33.33-41.66,66.65-83.32,99.98-124.98
	C196.89,252.96,211.23,248.33,218.14,246.67z"/>
</svg>
