<?xml version="1.0" encoding="utf-8"?>
<!-- Generator: Adobe Illustrator 25.2.0, SVG Export Plug-In . SVG Version: 6.00 Build 0)  -->
<svg version="1.1" id="Layer_2_1_" xmlns="http://www.w3.org/2000/svg" xmlns:xlink="http://www.w3.org/1999/xlink" x="0px" y="0px"
	 viewBox="0 0 500 500" style="enable-background:new 0 0 500 500;" xml:space="preserve">
<style type="text/css">
	.st0{fill:current;}
</style>
<path class="st0" d="M335.5,350.6c-2.2,0-4.3-0.7-6.2-2.1c-13.2-10.4-41.2-27.8-80.3-28.2c-0.4,0-0.9,0-1.3,0
	c-38.6,0-66.4,16.7-79.7,26.8c-4,3-9.6,2.6-13.2-1L11.8,200.7c-3.8-3.9-3.8-10.1,0-14C26.1,172.1,50.4,150.8,85,131
	c50.8-29,105.5-43.9,162.6-44.3c58.8-0.5,115.2,14.4,167.7,44.2c27.6,15.7,54,35.7,74.4,56.5c3.8,3.9,3.8,10.2-0.1,14.1L342.6,347.7
	C340.7,349.6,338.1,350.6,335.5,350.6z M247.8,300.3c0.5,0,1,0,1.5,0c38.9,0.4,68.2,15.4,85.3,27.2l133.7-133
	c-29.2-27.5-106.1-87.8-218-87.8c-0.8,0-1.7,0-2.5,0c-53.6,0.4-105.1,14.5-152.9,41.7c-22.4,12.8-44,28.7-61.8,45.4L163.2,326
	C180.3,314.6,209.5,300.3,247.8,300.3z"/>
<g>
	<g>
		<path class="st0" d="M189.3,403.1c-3.5,0-6.9-1.4-9.4-4.2c-12.7-14.3-19.6-29.6-20.5-45.4c-1.2-19.8,6.6-34.1,12.8-45.5
			c2.4-4.4,4.7-8.6,6-12.4c5.2-14.7-0.4-34.8-16.7-59.8c-3.8-5.8-2.1-13.5,3.6-17.3c5.8-3.8,13.5-2.1,17.3,3.6
			c21.1,32.4,27.4,59.1,19.3,81.9c-2,5.6-4.9,10.9-7.6,16c-5.4,10-10.6,19.5-9.8,32.1c0.6,10.1,5.4,20.3,14.3,30.3
			c4.6,5.2,4.1,13.1-1.1,17.6C195.2,402,192.2,403.1,189.3,403.1z"/>
		<g>
			<g>
				<polygon class="st0" points="133.2,180.8 214.9,227.3 174.2,233 159,271.2 				"/>
				<path class="st0" d="M158.9,272.7l-26.5-93l84.1,47.8l-41.9,5.9L158.9,272.7z M134,181.8l25.1,87.8l14.8-37.1l39.6-5.6
					L134,181.8z"/>
			</g>
		</g>
	</g>
</g>
<g>
	<g>
		<path class="st0" d="M271,400.6c-2.8,0-5.5-1.1-7.5-3.4c-12.3-13.9-19-28.7-19.9-43.9c-1.1-19.1,6.5-33,12.5-44.2
			c2.5-4.5,4.8-8.8,6.2-12.8c5.5-15.5-0.2-36.3-16.9-62c-3-4.6-1.7-10.8,2.9-13.8c4.6-3,10.8-1.7,13.8,2.9
			c20.6,31.7,26.9,57.7,19,79.7c-1.9,5.5-4.8,10.6-7.5,15.6c-5.6,10.3-10.9,20.1-10.1,33.5c0.6,10.7,5.7,21.4,14.9,31.8
			c3.7,4.1,3.3,10.5-0.8,14.1C275.7,399.8,273.3,400.6,271,400.6z"/>
		<g>
			<g>
				<polygon class="st0" points="214.9,180.8 296.7,227.3 255.9,233 240.7,271.2 				"/>
				<path class="st0" d="M240.7,272.7l-26.5-93l84.1,47.8l-41.9,5.9L240.7,272.7z M215.7,181.8l25.1,87.8l14.8-37.1l39.6-5.6
					L215.7,181.8z"/>
			</g>
		</g>
	</g>
</g>
<g>
	<g>
		<path class="st0" d="M351.9,403.1c-3.5,0-6.9-1.4-9.4-4.2c-12.7-14.3-19.6-29.6-20.5-45.4c-1.2-19.8,6.6-34.1,12.8-45.5
			c2.4-4.4,4.7-8.6,6-12.4c5.2-14.7-0.4-34.8-16.7-59.8c-3.8-5.8-2.1-13.5,3.6-17.3c5.8-3.8,13.5-2.1,17.3,3.6
			c21.1,32.3,27.4,59.1,19.3,81.9c-2,5.6-4.9,10.9-7.6,16c-5.4,10-10.6,19.5-9.8,32.1c0.6,10.1,5.4,20.3,14.3,30.3
			c4.6,5.2,4.1,13.1-1.1,17.6C357.8,402,354.8,403.1,351.9,403.1z"/>
		<g>
			<g>
				<polygon class="st0" points="295.8,180.8 377.5,227.3 336.8,233 321.6,271.2 				"/>
				<path class="st0" d="M321.5,272.7l-26.5-93l84.1,47.8l-41.9,5.9L321.5,272.7z M296.6,181.8l25.1,87.8l14.8-37.1L376,227
					L296.6,181.8z"/>
			</g>
		</g>
	</g>
</g>
</svg>
