<?xml version="1.0" encoding="utf-8"?>
<!-- Generator: Adobe Illustrator 25.2.0, SVG Export Plug-In . SVG Version: 6.00 Build 0)  -->
<svg version="1.1" id="Layer_2" xmlns="http://www.w3.org/2000/svg" xmlns:xlink="http://www.w3.org/1999/xlink" x="0px" y="0px"
	 viewBox="0 0 500 500" style="enable-background:new 0 0 500 500;" xml:space="preserve">
<style type="text/css">
	.st0{fill:none;stroke:current;stroke-width:25;stroke-linejoin:round;stroke-miterlimit:10;}
	.st1{fill:none;stroke:current;stroke-width:25;stroke-linecap:round;stroke-miterlimit:10;}
	.st2{fill:current;}
</style>
<path class="st0" d="M162.09,339.08c-47.72-48.48-95.44-96.95-143.16-145.43c15.39-15.61,97.66-95.88,228.75-96.95
	c135.18-1.1,220.25,82.86,234.81,97.71c-48.98,48.73-97.96,97.46-146.94,146.19c-9.34-7.33-40.47-29.86-86.35-30.3
	C203.16,309.85,171.54,331.92,162.09,339.08z"/>
<g>
	<g>
		<path class="st1" d="M189.25,390.58c-7.36-8.3-16.44-21.31-17.42-37.87c-1.39-23.48,12.75-37.79,18.18-53.02
			c5.19-14.55,4.38-36.53-17.99-70.84"/>
		<g>
			<polygon class="st2" points="133.2,180.77 214.95,227.26 174.21,232.99 159.01,271.2 			"/>
		</g>
	</g>
</g>
<g>
	<g>
		<path class="st1" d="M270.98,390.58c-7.36-8.3-16.44-21.31-17.42-37.87c-1.39-23.48,12.75-37.79,18.18-53.02
			c5.19-14.55,4.38-36.53-17.99-70.84"/>
		<g>
			<polygon class="st2" points="214.93,180.77 296.68,227.26 255.95,232.99 240.74,271.2 			"/>
		</g>
	</g>
</g>
<g>
	<g>
		<path class="st1" d="M351.85,390.58c-7.36-8.3-16.44-21.31-17.42-37.87c-1.39-23.48,12.75-37.79,18.18-53.02
			c5.19-14.55,4.38-36.53-17.99-70.84"/>
		<g>
			<polygon class="st2" points="295.8,180.77 377.55,227.26 336.82,232.99 321.61,271.2 			"/>
		</g>
	</g>
</g>
</svg>
