<?xml version="1.0" encoding="utf-8"?>
<!-- Generator: Adobe Illustrator 25.2.0, SVG Export Plug-In . SVG Version: 6.00 Build 0)  -->
<svg version="1.1" id="svg" xmlns="http://www.w3.org/2000/svg" xmlns:xlink="http://www.w3.org/1999/xlink" x="0px" y="0px"
	 viewBox="0 0 400 400" style="enable-background:new 0 0 400 400;" xml:space="preserve">
<style type="text/css">
	.st0{fill-rule:evenodd;clip-rule:evenodd;fill:current;}
</style>
<g id="svgg">
	<path id="path0" class="st0" d="M105.5,0.7C74.1,5.3,37,39.7,27.4,73.3C14.6,117.9,54.7,167,127.9,196.2c4.2,1.7,9.9,3.7,12.7,4.5
		c6.7,2,6.9,2.6,1.3,6.3c-15.1,10-27.7,11.9-53.9,8.2c-39-5.6-75.5,15.8-86,50.6c-3.6,11.8-2.3,32.2,2.8,43.6
		c0.7,1.6,1.3,3.1,1.3,3.4c0,2.1,10.9,18.3,16.8,25.1c30.9,35,64.2,44.8,98.2,29.1c30.2-14,62.6-57.3,78.4-105
		c1.6-4.8,3.2-8.7,3.6-8.7c2.2,0,9.4,14.3,12.6,25.1c1.5,5.2,1.4,24.5-0.1,28.2c-4.2,10.1-1.3,37.2,5.6,51.4
		c8.8,18.3,30.4,38.5,41.1,38.5c0.9,0,1.8,0.4,2,0.8c2.1,3.3,27.9,3.4,38.6,0c25.6-8,55.8-36.3,66.1-61.9c12.9-32.1,1.5-65-32.7-94
		c-20.1-17-53.5-35.1-78.4-42.3c-5.6-1.6-5.8-2.1-1.6-5.3c13.6-10.4,30.1-12.9,55.7-8.7c44.3,7.3,88-26.4,88-67.8
		c0-5.2-2.4-20.2-3.6-22.3c-0.5-0.8-1.9-4.2-3.2-7.4c-9.3-23.1-41-52.4-63.5-58.9c-38.5-11-74.7,8.9-105.4,58.1
		c-7.3,11.6-19.4,35.5-19.5,38.1c0,0.4-0.6,1.8-1.2,3.1c-0.7,1.3-2.3,5.9-3.7,10.3c-2.9,9.4-2.7,9-4.5,7.5
		c-10.7-8.9-16.3-41.4-10.2-58.9c2.1-6.1,0-26.5-3.9-37.3C169.1,15.2,139-4.1,105.5,0.7 M209.1,184.5c12.8,8.1,11.3,26.5-2.7,32.3
		c-14.3,6-29.4-9.2-23.5-23.5C187.4,182.7,199.6,178.6,209.1,184.5"/>
</g>
</svg>
