<?xml version="1.0" encoding="utf-8"?>
<!-- Generator: Adobe Illustrator 25.2.0, SVG Export Plug-In . SVG Version: 6.00 Build 0)  -->
<svg version="1.1" id="Layer_2" xmlns="http://www.w3.org/2000/svg" xmlns:xlink="http://www.w3.org/1999/xlink" x="0px" y="0px"
	 viewBox="0 0 200 175.8" style="enable-background:new 0 0 200 175.8;" xml:space="preserve">
<style type="text/css">
	.st0{fill:#FFC712;}
	.st1{fill:none;stroke:#FFC712;stroke-width:8;stroke-miterlimit:10;}
	.st2{fill:none;stroke:#FFC712;stroke-width:5;stroke-miterlimit:10;}
</style>
<path class="st0" d="M145.19,41.56c18.15,0,36.3,0,54.45,0c0.12,9.61,0.24,19.22,0.36,28.83c-2.71,13.06-14.27,22.45-27.4,22.42
	c-12.7-0.03-23.94-8.85-27.05-21.35C145.43,61.49,145.31,51.53,145.19,41.56z"/>
<path class="st1" d="M104.26,70.39c1.39-0.07,12.94-0.48,19.88,8.31c2.99,3.79,3.96,7.81,4.32,10.2c0,16.02,0,32.03,0,48.05
	c1.15,10.91,9.52,19.45,19.57,20.64c11.57,1.37,23.02-7.28,24.91-19.93c-0.12-15.9-0.24-31.79-0.36-47.69"/>
<path class="st0" d="M108.2,162.91c0-51.74,0-103.47,0-155.21c-0.06-0.73-0.32-2.62-1.78-4.36c-1.99-2.36-4.72-2.68-5.31-2.74
	c-28.53,0-57.06,0-85.59,0c-0.62,0.09-2.3,0.43-3.75,1.86c-1.92,1.89-2,4.29-2.01,4.79c-0.15,51.88-0.3,103.77-0.44,155.65
	c-5.41-0.66-9.42,3.34-9.31,6.65c0.1,3.11,3.86,6.62,8.87,6.21c33.26,0,66.52,0,99.78,0c4.9,0.31,8.62-2.85,8.87-5.76
	C117.79,166.76,113.9,162.51,108.2,162.91z M92.59,64.85c0,4.39-3.56,7.95-7.95,7.95H32.89c-4.39,0-7.95-3.56-7.95-7.95V20.26
	c0-4.39,3.56-7.95,7.95-7.95h51.75c4.39,0,7.95,3.56,7.95,7.95V64.85z"/>
<line class="st2" x1="162.27" y1="12.31" x2="162.27" y2="41.56"/>
<line class="st2" x1="182.56" y1="12.31" x2="182.56" y2="41.56"/>
</svg>
