<?xml version="1.0" encoding="utf-8"?>
<!-- Generator: Adobe Illustrator 25.2.0, SVG Export Plug-In . SVG Version: 6.00 Build 0)  -->
<svg version="1.1" id="Layer_1" xmlns="http://www.w3.org/2000/svg" xmlns:xlink="http://www.w3.org/1999/xlink" x="0px" y="0px"
	 viewBox="0 0 170 130" style="enable-background:new 0 0 170 130;" xml:space="preserve">
<style type="text/css">
	.st0{fill:#6ABD45;}
</style>
<g>
	<path class="st0" d="M138.77,85.03c-11.04,8.08-25.15,13.1-36.83,13.1c-12.72,0-27.33-4.85-27.33-42.68s14.61-42.68,27.33-42.68
		c11.68,0,25.79,5.02,36.83,13.1c11.66,8.54,18.34,19.32,18.34,29.59C157.12,65.71,150.43,76.49,138.77,85.03z M145.86,16.18
		c-13.19-9.66-29.61-15.42-43.92-15.42c-14.41,0-25.06,5.81-31.65,17.27c-5.16,8.98-7.68,21.21-7.68,37.42
		c0,16.2,2.51,28.44,7.68,37.42c6.59,11.46,17.25,17.26,31.65,17.26c14.32,0,30.73-5.76,43.92-15.42
		c15-10.98,23.25-24.93,23.25-39.26C169.12,41.11,160.86,27.16,145.86,16.18z"/>
	<path class="st0" d="M48.56,7.47L3.32,30.1c-2.96,1.48-4.16,5.09-2.68,8.05c1.05,2.1,3.17,3.32,5.37,3.32
		c0.9,0,1.82-0.21,2.68-0.64l45.25-22.62c2.97-1.48,4.16-5.09,2.68-8.05C55.13,7.19,51.53,5.99,48.56,7.47z"/>
	<path class="st0" d="M48.56,29.36L3.32,51.98c-2.96,1.48-4.16,5.09-2.68,8.05c1.05,2.1,3.17,3.32,5.37,3.32
		c0.9,0,1.82-0.2,2.68-0.63l45.25-22.62c2.97-1.48,4.16-5.09,2.68-8.05C55.13,29.08,51.53,27.88,48.56,29.36z"/>
	<path class="st0" d="M48.56,51.24L3.32,73.87c-2.96,1.48-4.16,5.09-2.68,8.05c1.05,2.1,3.17,3.32,5.37,3.32
		c0.9,0,1.82-0.2,2.68-0.64l45.25-22.62c2.97-1.48,4.16-5.09,2.68-8.05C55.13,50.96,51.53,49.76,48.56,51.24z"/>
	<path class="st0" d="M48.56,73.13L3.32,95.75c-2.96,1.49-4.16,5.09-2.68,8.05c1.05,2.1,3.17,3.32,5.37,3.32
		c0.9,0,1.82-0.2,2.68-0.63l45.25-22.62c2.97-1.49,4.16-5.09,2.68-8.05C55.13,72.85,51.53,71.64,48.56,73.13z"/>
	<path class="st0" d="M48.56,95.01L3.32,117.63c-2.96,1.49-4.16,5.09-2.68,8.05c1.05,2.1,3.17,3.32,5.37,3.32
		c0.9,0,1.82-0.2,2.68-0.63l45.25-22.62c2.97-1.48,4.16-5.09,2.68-8.05C55.13,94.73,51.53,93.53,48.56,95.01z"/>
</g>
</svg>
