<?xml version="1.0" encoding="utf-8"?>
<!-- Generator: Adobe Illustrator 25.2.0, SVG Export Plug-In . SVG Version: 6.00 Build 0)  -->
<svg version="1.1" id="Layer_1" xmlns="http://www.w3.org/2000/svg" xmlns:xlink="http://www.w3.org/1999/xlink" x="0px" y="0px"
	 viewBox="0 0 170 111" style="enable-background:new 0 0 170 111;" xml:space="preserve">
<style type="text/css">
	.st0{fill:#0000FF;}
</style>
<g>
	<path class="st0" d="M138.77,84.9C127.73,92.98,113.62,98,101.94,98c-12.72,0-27.33-4.85-27.33-42.68s14.61-42.68,27.33-42.68
		c11.68,0,25.8,5.02,36.83,13.1c11.66,8.54,18.35,19.32,18.35,29.59C157.12,65.58,150.43,76.36,138.77,84.9z M145.86,16.05
		c-13.18-9.65-29.6-15.42-43.92-15.42c-14.41,0-25.06,5.81-31.65,17.26c-5.16,8.98-7.68,21.21-7.68,37.42
		c0,16.2,2.51,28.44,7.68,37.42C76.88,104.19,87.53,110,101.94,110c14.32,0,30.74-5.77,43.92-15.42
		c15-10.98,23.26-24.93,23.26-39.27S160.86,27.03,145.86,16.05z"/>
	<path class="st0" d="M51.24,6.71H6c-3.31,0-6,2.69-6,6s2.69,6,6,6h45.24c3.32,0,6-2.68,6-6C57.24,9.4,54.56,6.71,51.24,6.71z"/>
	<path class="st0" d="M51.24,28.6H6c-3.31,0-6,2.69-6,6c0,3.32,2.69,6,6,6h45.24c3.32,0,6-2.68,6-6S54.56,28.6,51.24,28.6z"/>
	<path class="st0" d="M51.24,50.48H6c-3.31,0-6,2.69-6,6c0,3.32,2.69,6,6,6h45.24c3.32,0,6-2.68,6-6
		C57.24,53.17,54.56,50.48,51.24,50.48z"/>
	<path class="st0" d="M51.24,72.36H6c-3.31,0-6,2.68-6,6c0,3.31,2.69,6,6,6h45.24c3.32,0,6-2.69,6-6S54.56,72.36,51.24,72.36z"/>
	<path class="st0" d="M51.24,94.25H6c-3.31,0-6,2.69-6,6s2.69,6,6,6h45.24c3.32,0,6-2.69,6-6C57.24,96.93,54.56,94.25,51.24,94.25z"
		/>
</g>
</svg>
