<?xml version="1.0" encoding="utf-8"?>
<!-- Generator: Adobe Illustrator 25.2.0, SVG Export Plug-In . SVG Version: 6.00 Build 0)  -->
<svg version="1.1" id="Layer_1" xmlns="http://www.w3.org/2000/svg" xmlns:xlink="http://www.w3.org/1999/xlink" x="0px" y="0px"
	 viewBox="0 0 154 133" style="enable-background:new 0 0 154 133;" xml:space="preserve">
<style type="text/css">
	.st0{fill:#ED2024;}
</style>
<g>
	<path class="st0" d="M150.48,107.19c-2.86-1.66-6.53-0.68-8.19,2.19C138.5,115.93,131.45,120,123.9,120
		c-7.55,0-14.6-4.07-18.39-10.62c-1.07-1.86-3.06-3-5.2-3c-2.14,0-4.12,1.14-5.19,3C91.34,115.93,84.3,120,76.75,120
		c-7.55,0-14.6-4.07-18.39-10.62c-1.07-1.85-3.05-2.99-5.19-2.99c-2.14,0-4.12,1.14-5.19,3C44.18,115.93,37.13,120,29.58,120
		c-7.56,0-14.6-4.07-18.39-10.62c-1.66-2.87-5.33-3.85-8.2-2.19c-2.87,1.66-3.85,5.33-2.19,8.2C6.73,125.63,17.76,132,29.58,132
		c8.93,0,17.41-3.64,23.58-9.84c6.17,6.2,14.65,9.84,23.58,9.84s17.41-3.64,23.57-9.83c6.17,6.19,14.65,9.83,23.58,9.83
		c11.82,0,22.85-6.37,28.77-16.62C154.33,112.52,153.35,108.85,150.48,107.19z"/>
	<path class="st0" d="M105.52,81.61c-1.66-2.87-5.33-3.85-8.2-2.19c-2.87,1.66-3.85,5.33-2.19,8.2
		c5.93,10.25,16.95,16.61,28.78,16.61c11.82,0,22.85-6.37,28.77-16.61c1.66-2.87,0.68-6.54-2.19-8.2c-2.87-1.66-6.54-0.68-8.2,2.19
		c-3.79,6.55-10.83,10.62-18.38,10.62C116.35,92.23,109.3,88.16,105.52,81.61z"/>
	<path class="st0" d="M29.58,104.23c11.82,0,22.85-6.37,28.77-16.61c1.66-2.87,0.68-6.54-2.19-8.2c-2.87-1.66-6.54-0.68-8.2,2.19
		c-3.79,6.55-10.83,10.62-18.39,10.62c-7.55,0-14.6-4.07-18.39-10.62C9.54,78.74,5.87,77.76,3,79.42c-2.87,1.66-3.85,5.33-2.19,8.2
		C6.73,97.86,17.76,104.23,29.58,104.23z"/>
</g>
<path class="st0" d="M76.88,113.35c8.79,0,15.91-7.13,15.91-15.92c0-6.66-4.1-12.37-9.91-14.74V70.23h20.38c3.31,0,6-2.69,6-6
	c0-3.32-2.69-6-6-6H82.88V48.02h20.38c3.31,0,6-2.69,6-6c0-3.32-2.69-6-6-6H82.88V25.8h20.38c3.31,0,6-2.69,6-6c0-3.32-2.69-6-6-6
	H82.88V6.14c0-3.31-2.69-6-6-6c-3.31,0-6,2.69-6,6v76.55c-5.82,2.37-9.92,8.07-9.92,14.74C60.96,106.22,68.09,113.35,76.88,113.35z"
	/>
</svg>
