<?xml version="1.0" encoding="utf-8"?>
<!-- Generator: Adobe Illustrator 25.2.0, SVG Export Plug-In . SVG Version: 6.00 Build 0)  -->
<svg version="1.1" id="Layer_1" xmlns="http://www.w3.org/2000/svg" xmlns:xlink="http://www.w3.org/1999/xlink" x="0px" y="0px"
	 viewBox="0 0 209 160" style="enable-background:new 0 0 209 160;" xml:space="preserve">
<style type="text/css">
	.st0{fill:#FFC60B;}
	.st1{clip-path:url(#SVGID_2_);fill:#FFC60B;}
</style>
<path class="st0" d="M51.37,25.2L41,19.16c-3.29,5.65-5.03,12.11-5.03,18.68h12C47.97,33.39,49.15,29.02,51.37,25.2z"/>
<path class="st0" d="M73.12,12.68c0.96,0,1.93,0.05,2.88,0.16l1.35-11.93c-1.4-0.16-2.82-0.24-4.24-0.24
	c-10.22,0-20.09,4.27-27.09,11.72l8.75,8.21C59.59,15.5,66.11,12.68,73.12,12.68z"/>
<path class="st0" d="M97.18,30.45h14.2c2.32-7.57,8.16-13.67,15.62-16.32l-4.02-11.3c-7.74,2.75-14.29,8.03-18.7,14.79
	c-4.41-6.77-10.96-12.04-18.7-14.79l-4.02,11.3C89.02,16.79,94.86,22.89,97.18,30.45z"/>
<path class="st0" d="M160.58,37.84h12c0-6.57-1.74-13.03-5.03-18.68l-10.37,6.04C159.41,29.02,160.58,33.39,160.58,37.84z"/>
<rect x="98.28" y="71.74" class="st0" width="12" height="29.02"/>
<path class="st0" d="M135.43,12.68c7.02,0,13.53,2.82,18.34,7.94l8.75-8.21c-7-7.45-16.87-11.72-27.09-11.72
	c-1.41,0-2.84,0.08-4.24,0.24l1.36,11.93C133.5,12.74,134.46,12.68,135.43,12.68z"/>
<g>
	<defs>
		<rect id="SVGID_1_" y="0.68" width="209" height="159"/>
	</defs>
	<clipPath id="SVGID_2_">
		<use xlink:href="#SVGID_1_"  style="overflow:visible;"/>
	</clipPath>
	<rect x="98.28" y="107.89" class="st1" width="12" height="16.4"/>
	<path class="st1" d="M139.88,144.74c-10.05-8.15-22.49-12.57-35.6-12.57c-13.12,0-25.55,4.43-35.6,12.57l-54.1-54.09
		C37.67,69.5,67,57.35,98.28,55.97v8.69h12v-8.69c31.28,1.38,60.61,13.53,83.7,34.67L139.88,144.74z M110.28,43.97v-8.75h-12v8.75
		C61.8,45.45,27.72,60.34,1.76,86.31C0.63,87.43,0,88.95,0,90.55c0,1.59,0.63,3.12,1.76,4.24l62.45,62.45
		c2.34,2.34,6.14,2.34,8.49,0c8.43-8.43,19.65-13.08,31.58-13.08c11.93,0,23.14,4.65,31.58,13.08c1.12,1.12,2.65,1.76,4.24,1.76
		c1.59,0,3.12-0.63,4.24-1.76l62.46-62.45c2.34-2.34,2.34-6.14,0-8.48C180.83,60.34,146.75,45.45,110.28,43.97z"/>
</g>
</svg>
